<svg width="88" height="69" viewBox="0 0 88 69" fill="none" xmlns="http://www.w3.org/2000/svg">
<path d="M45.7708 52.4028H61.2291V59.0409H45.7708V52.4028Z" fill="#FBDA61"/>
<path d="M42.1977 40.2331C43.1462 40.2297 44.0767 40.4924 44.8839 40.9916C45.691 41.4908 46.3425 42.2065 46.7646 43.0576C47.0024 43.5392 47.37 43.9444 47.8259 44.2273C48.2818 44.5103 48.8076 44.6596 49.3439 44.6585H57.6561C58.1932 44.6607 58.7203 44.5118 59.1772 44.2288C59.6342 43.9458 60.0027 43.54 60.2409 43.0576C60.6626 42.2073 61.3132 41.4922 62.1193 40.9931C62.9253 40.494 63.8546 40.2307 64.8022 40.2331H72.2708V35.8077C72.2708 30.8196 70.2932 26.0358 66.7729 22.5087C63.2527 18.9815 58.4783 17 53.5 17C48.5216 17 43.7472 18.9815 40.227 22.5087C36.7068 26.0358 34.7292 30.8196 34.7292 35.8077V40.2331H42.1977ZM45.7708 25.8507H61.2291C61.522 25.8507 61.8028 25.9673 62.0099 26.1747C62.217 26.3822 62.3333 26.6636 62.3333 26.957C62.3333 27.2505 62.217 27.5319 62.0099 27.7393C61.8028 27.9468 61.522 28.0634 61.2291 28.0634H45.7708C45.478 28.0634 45.1971 27.9468 44.99 27.7393C44.783 27.5319 44.6666 27.2505 44.6666 26.957C44.6666 26.6636 44.783 26.3822 44.99 26.1747C45.1971 25.9673 45.478 25.8507 45.7708 25.8507ZM43.5625 30.2761H63.4375C63.7303 30.2761 64.0112 30.3926 64.2182 30.6001C64.4253 30.8076 64.5416 31.089 64.5416 31.3824C64.5416 31.6758 64.4253 31.9572 64.2182 32.1647C64.0112 32.3722 63.7303 32.4887 63.4375 32.4887H43.5625C43.2696 32.4887 42.9888 32.3722 42.7817 32.1647C42.5746 31.9572 42.4583 31.6758 42.4583 31.3824C42.4583 31.089 42.5746 30.8076 42.7817 30.6001C42.9888 30.3926 43.2696 30.2761 43.5625 30.2761ZM43.5625 34.7014H63.4375C63.7303 34.7014 64.0112 34.818 64.2182 35.0254C64.4253 35.2329 64.5416 35.5143 64.5416 35.8077C64.5416 36.1012 64.4253 36.3826 64.2182 36.59C64.0112 36.7975 63.7303 36.9141 63.4375 36.9141H43.5625C43.2696 36.9141 42.9888 36.7975 42.7817 36.59C42.5746 36.3826 42.4583 36.1012 42.4583 35.8077C42.4583 35.5143 42.5746 35.2329 42.7817 35.0254C42.9888 34.818 43.2696 34.7014 43.5625 34.7014Z" fill="#FBDA61"/>
<path d="M75.0312 49.0838C74.0479 49.0833 73.0867 49.3768 72.2708 49.9269V42.4458H64.8022C64.266 42.4446 63.7401 42.594 63.2843 42.8769C62.8284 43.1599 62.4607 43.5651 62.2229 44.0467C61.8008 44.8978 61.1493 45.6134 60.3422 46.1126C59.5351 46.6118 58.6046 46.8746 57.6561 46.8711H49.3439C48.3964 46.8735 47.467 46.6103 46.661 46.1111C45.8549 45.612 45.2043 44.8969 44.7826 44.0467C44.5444 43.5642 44.1759 43.1584 43.7189 42.8754C43.262 42.5924 42.7349 42.4436 42.1978 42.4458H34.7292V49.9269C33.9813 49.4262 33.1119 49.1383 32.2135 49.0939C31.3152 49.0495 30.4217 49.2503 29.6283 49.6748C28.8349 50.0993 28.1713 50.7316 27.7085 51.5043C27.2456 52.277 27.0008 53.1611 27 54.0623V64.0194C26.9961 65.2129 27.4214 66.3679 28.1981 67.2727C28.9748 68.1776 30.0509 68.7718 31.2292 68.9465C32.4076 69.1212 33.6093 68.8647 34.6142 68.224C35.6191 67.5832 36.3601 66.6011 36.7012 65.4576C37.6886 66.3095 38.947 66.7802 40.25 66.7852H66.75C68.053 66.7802 69.3114 66.3095 70.2988 65.4576C70.6399 66.6011 71.3808 67.5832 72.3858 68.224C73.3907 68.8647 74.5924 69.1212 75.7708 68.9465C76.9491 68.7718 78.0252 68.1776 78.8019 67.2727C79.5786 66.3679 80.0039 65.2129 80 64.0194V54.0623C79.9985 52.7424 79.4745 51.477 78.543 50.5436C77.6115 49.6103 76.3486 49.0853 75.0312 49.0838ZM63.4375 60.1472C63.4375 60.4406 63.3212 60.722 63.1141 60.9295C62.907 61.137 62.6262 61.2535 62.3333 61.2535H44.6667C44.3738 61.2535 44.093 61.137 43.8859 60.9295C43.6788 60.722 43.5625 60.4406 43.5625 60.1472V51.2965C43.5625 51.0031 43.6788 50.7217 43.8859 50.5142C44.093 50.3067 44.3738 50.1902 44.6667 50.1902H62.3333C62.6262 50.1902 62.907 50.3067 63.1141 50.5142C63.3212 50.7217 63.4375 51.0031 63.4375 51.2965V60.1472Z" fill="#FBDA61"/>
<path d="M52.7143 1H13.2857C12.4143 1 11.5786 1.354 10.9624 1.98412C10.3462 2.61424 10 3.46887 10 4.36V17.8C10 18.6911 10.3462 19.5458 10.9624 20.1759C11.5786 20.806 12.4143 21.16 13.2857 21.16H22.0662C22.0892 21.713 22.2451 22.2517 22.5202 22.7283C22.7953 23.205 23.1811 23.605 23.6434 23.8928L27.5238 26.2739V30.12C27.5266 30.8125 27.7386 31.4871 28.1307 32.0517C28.5228 32.6162 29.0759 33.0431 29.7143 33.2739V41.5261C29.0741 41.7542 28.5191 42.1803 28.1264 42.7455C27.7337 43.3106 27.5228 43.9867 27.5228 44.68C27.5228 45.3733 27.7337 46.0494 28.1264 46.6145C28.5191 47.1797 29.0741 47.6058 29.7143 47.8339V55.88C29.7143 56.177 29.8297 56.4619 30.0351 56.672C30.2405 56.882 30.519 57 30.8095 57H35.1905C35.481 57 35.7595 56.882 35.9649 56.672C36.1703 56.4619 36.2857 56.177 36.2857 55.88V47.8339C36.9259 47.6058 37.4809 47.1797 37.8736 46.6145C38.2662 46.0494 38.4772 45.3733 38.4772 44.68C38.4772 43.9867 38.2662 43.3106 37.8736 42.7455C37.4809 42.1803 36.9259 41.7542 36.2857 41.5261V33.2739C36.9241 33.0431 37.4772 32.6162 37.8693 32.0517C38.2614 31.4871 38.4734 30.8125 38.4762 30.12V26.2739L42.3566 23.8928C42.8189 23.605 43.2047 23.205 43.4798 22.7283C43.7549 22.2517 43.9108 21.713 43.9338 21.16H52.7143C53.5857 21.16 54.4214 20.806 55.0376 20.1759C55.6538 19.5458 56 18.6911 56 17.8V4.36C56 3.46887 55.6538 2.61424 55.0376 1.98412C54.4214 1.354 53.5857 1 52.7143 1V1ZM13.2857 3.24H52.7143C53.0048 3.24 53.2833 3.358 53.4887 3.56804C53.6941 3.77808 53.8095 4.06296 53.8095 4.36V5.48H12.1905V4.36C12.1905 4.06296 12.3059 3.77808 12.5113 3.56804C12.7167 3.358 12.9952 3.24 13.2857 3.24ZM34.0952 41.32H31.9048V33.48H34.0952V41.32ZM34.0952 54.76H31.9048V48.04H34.0952V54.76ZM35.1905 45.8H30.8095C30.519 45.8 30.2405 45.682 30.0351 45.472C29.8297 45.2619 29.7143 44.977 29.7143 44.68C29.7143 44.383 29.8297 44.0981 30.0351 43.888C30.2405 43.678 30.519 43.56 30.8095 43.56H35.1905C35.481 43.56 35.7595 43.678 35.9649 43.888C36.1703 44.0981 36.2857 44.383 36.2857 44.68C36.2857 44.977 36.1703 45.2619 35.9649 45.472C35.7595 45.682 35.481 45.8 35.1905 45.8ZM36.2857 30.12C36.2857 30.417 36.1703 30.7019 35.9649 30.912C35.7595 31.122 35.481 31.24 35.1905 31.24H30.8095C30.519 31.24 30.2405 31.122 30.0351 30.912C29.8297 30.7019 29.7143 30.417 29.7143 30.12V26.76H36.2857V30.12ZM41.7619 21.0122C41.7619 21.2054 41.7129 21.3954 41.6199 21.5636C41.5268 21.7318 41.3927 21.8725 41.2307 21.972L37.0776 24.52H28.9224L24.7693 21.972C24.6073 21.8725 24.4732 21.7318 24.3801 21.5636C24.2871 21.3954 24.2381 21.2054 24.2381 21.0122V13.32C24.2381 13.023 24.3535 12.7381 24.5589 12.528C24.7643 12.318 25.0429 12.2 25.3333 12.2H40.6667C40.9571 12.2 41.2357 12.318 41.4411 12.528C41.6465 12.7381 41.7619 13.023 41.7619 13.32V21.0122ZM52.7143 18.92H43.9524V13.32C43.9524 12.4289 43.6062 11.5742 42.99 10.9441C42.3738 10.314 41.5381 9.96 40.6667 9.96H25.3333C24.4619 9.96 23.6262 10.314 23.01 10.9441C22.3938 11.5742 22.0476 12.4289 22.0476 13.32V18.92H13.2857C12.9952 18.92 12.7167 18.802 12.5113 18.592C12.3059 18.3819 12.1905 18.097 12.1905 17.8V7.72H53.8095V17.8C53.8095 18.097 53.6941 18.3819 53.4887 18.592C53.2833 18.802 53.0048 18.92 52.7143 18.92Z" fill="url(#paint0_linear)"/>
<defs>
<linearGradient id="paint0_linear" x1="33" y1="1" x2="33" y2="57" gradientUnits="userSpaceOnUse">
<stop stop-color="#562BF5"/>
<stop offset="1" stop-color="#9832F6"/>
</linearGradient>
</defs>
</svg>
