<svg width="88" height="69" viewBox="0 0 88 69" fill="none" xmlns="http://www.w3.org/2000/svg">
<path d="M67.4788 50.2996C67.7581 49.713 67.8839 49.0655 67.8446 48.4174C67.8053 47.7692 67.6021 47.1416 67.2539 46.5927C66.9057 46.0438 66.4238 45.5916 65.8531 45.2781C65.2824 44.9646 64.6413 44.7999 63.9896 44.7995H54.1824L57.6881 37.8133C58.244 36.6731 58.3305 35.3615 57.929 34.1587C57.5275 32.9559 56.6698 31.9571 55.5392 31.3757C54.4086 30.7943 53.0946 30.6763 51.8778 31.0469C50.6611 31.4175 49.638 32.2474 49.027 33.3593L42.9 44.7995H30.3125C29.434 44.7995 28.5914 45.1472 27.9702 45.7661C27.349 46.385 27 47.2243 27 48.0996V65.6999C27 66.5752 27.349 67.4145 27.9702 68.0334C28.5914 68.6523 29.434 69 30.3125 69H60.6771C61.329 68.9999 61.9703 68.8356 62.5414 68.5222C63.1124 68.2089 63.5946 67.7567 63.943 67.2077C64.2915 66.6588 64.4949 66.031 64.5343 65.3827C64.5737 64.7344 64.4479 64.0867 64.1685 63.4999H65.0938C65.7634 63.4998 66.4215 63.3264 67.0036 62.9966C67.5858 62.6668 68.0719 62.192 68.4143 61.6187C68.7568 61.0454 68.9438 60.3933 68.9571 59.7263C68.9704 59.0593 68.8095 58.4003 68.4902 57.8139C69.3549 57.5388 70.0949 56.9692 70.5803 56.2051C71.0657 55.4409 71.2656 54.5309 71.145 53.6345C71.0243 52.7382 70.5908 51.9128 69.9205 51.303C69.2501 50.6933 68.3857 50.338 67.4788 50.2996ZM29.2083 65.6999V48.0996C29.2083 47.8078 29.3247 47.528 29.5317 47.3217C29.7388 47.1155 30.0197 46.9996 30.3125 46.9996H33.625V66.8H30.3125C30.0197 66.8 29.7388 66.6841 29.5317 66.4778C29.3247 66.2715 29.2083 65.9917 29.2083 65.6999Z" fill="#FBDA61"/>
<path d="M70.0625 42.6006C74.941 42.6006 78.8958 38.6606 78.8958 33.8004C78.8958 28.9402 74.941 25.0002 70.0625 25.0002C65.184 25.0002 61.2292 28.9402 61.2292 33.8004C61.2292 38.6606 65.184 42.6006 70.0625 42.6006Z" fill="#FBDA61"/>
<path d="M75.0313 23.9002C77.7754 23.9002 80 21.684 80 18.9501C80 16.2162 77.7754 14 75.0313 14C72.2871 14 70.0625 16.2162 70.0625 18.9501C70.0625 21.684 72.2871 23.9002 75.0313 23.9002Z" fill="#FBDA61"/>
<path d="M63.58 19.1819H44.2V17.3126C44.1992 17.0853 44.2672 16.8631 44.3951 16.675C44.5231 16.4868 44.705 16.3415 44.917 16.2581L54.232 12.5433C56.3227 11.7174 58.1152 10.2827 59.376 8.42642C60.6367 6.5701 61.3072 4.37822 61.3 2.13651C61.3 1.95331 61.2556 1.77281 61.1705 1.61041C61.0855 1.44801 60.9623 1.30852 60.8114 1.20383C60.6606 1.09913 60.4866 1.03234 60.3043 1.00915C60.122 0.985949 59.9368 1.00704 59.7644 1.07061L30.4721 11.8865C29.8181 12.1298 29.2541 12.5662 28.8553 13.1373C28.4564 13.7084 28.2418 14.3872 28.24 15.0831V19.1819H19.12V4.40923C19.12 3.50509 18.7597 2.63798 18.1183 1.99865C17.4769 1.35932 16.607 1.00015 15.7 1.00015H13.42C12.513 1.00015 11.6431 1.35932 11.0017 1.99865C10.3603 2.63798 10 3.50509 10 4.40923V45.3182C10 46.2223 10.3603 47.0895 11.0017 47.7288C11.6431 48.3681 12.513 48.7273 13.42 48.7273H15.7C16.607 48.7273 17.4769 48.3681 18.1183 47.7288C18.7597 47.0895 19.12 46.2223 19.12 45.3182V30.5455H46.48V36.2273C46.48 37.1315 46.8403 37.9986 47.4817 38.6379C48.123 39.2772 48.9929 39.6364 49.9 39.6364H63.58C64.487 39.6364 65.3569 39.2772 65.9983 38.6379C66.6396 37.9986 67 37.1315 67 36.2273V22.591C67 21.6869 66.6396 20.8197 65.9983 20.1804C65.3569 19.5411 64.487 19.1819 63.58 19.1819ZM30.52 15.0831C30.5199 14.851 30.591 14.6245 30.7239 14.4339C30.8568 14.2434 31.045 14.0979 31.2633 14.0172L58.8604 3.82855C58.5805 5.29988 57.9322 6.67684 56.9755 7.8315C56.0188 8.98617 54.7849 9.88107 53.3884 10.4331L44.0723 14.1467C43.4359 14.3977 42.8902 14.834 42.5063 15.3987C42.1223 15.9635 41.918 16.6304 41.92 17.3126V19.1819H30.52V15.0831ZM16.84 45.3182C16.84 45.6196 16.7199 45.9086 16.5061 46.1217C16.2923 46.3348 16.0023 46.4546 15.7 46.4546H13.42C13.1177 46.4546 12.8277 46.3348 12.6139 46.1217C12.4001 45.9086 12.28 45.6196 12.28 45.3182V4.40923C12.28 4.10785 12.4001 3.81881 12.6139 3.60571C12.8277 3.3926 13.1177 3.27287 13.42 3.27287H15.7C16.0023 3.27287 16.2923 3.3926 16.5061 3.60571C16.7199 3.81881 16.84 4.10785 16.84 4.40923V45.3182ZM64.72 36.2273C64.72 36.5287 64.5999 36.8177 64.3861 37.0309C64.1723 37.244 63.8823 37.3637 63.58 37.3637H49.9C49.5976 37.3637 49.3077 37.244 49.0939 37.0309C48.8801 36.8177 48.76 36.5287 48.76 36.2273V29.4092C48.76 29.1078 48.6399 28.8187 48.4261 28.6056C48.2123 28.3925 47.9223 28.2728 47.62 28.2728H19.12V21.4546H63.58C63.8823 21.4546 64.1723 21.5744 64.3861 21.7875C64.5999 22.0006 64.72 22.2896 64.72 22.591V36.2273Z" fill="url(#paint0_linear)"/>
<path d="M47.6199 41.9091C47.3176 41.9091 47.0276 42.0288 46.8138 42.2419C46.6 42.4551 46.4799 42.7441 46.4799 43.0455V49.8636C46.4799 50.165 46.6 50.4541 46.8138 50.6672C47.0276 50.8803 47.3176 51 47.6199 51C47.9223 51 48.2122 50.8803 48.426 50.6672C48.6398 50.4541 48.7599 50.165 48.7599 49.8636V43.0455C48.7599 42.7441 48.6398 42.4551 48.426 42.2419C48.2122 42.0288 47.9223 41.9091 47.6199 41.9091Z" fill="url(#paint1_linear)"/>
<path d="M56.7401 41.9091C56.4377 41.9091 56.1478 42.0288 55.934 42.2419C55.7202 42.4551 55.6001 42.7441 55.6001 43.0455V49.8636C55.6001 50.165 55.7202 50.4541 55.934 50.6672C56.1478 50.8803 56.4377 51 56.7401 51C57.0424 51 57.3324 50.8803 57.5462 50.6672C57.76 50.4541 57.8801 50.165 57.8801 49.8636V43.0455C57.8801 42.7441 57.76 42.4551 57.5462 42.2419C57.3324 42.0288 57.0424 41.9091 56.7401 41.9091Z" fill="url(#paint2_linear)"/>
<path d="M65.86 41.9091C65.5577 41.9091 65.2677 42.0288 65.0539 42.2419C64.8401 42.4551 64.72 42.7441 64.72 43.0455V49.8636C64.72 50.165 64.8401 50.4541 65.0539 50.6672C65.2677 50.8803 65.5577 51 65.86 51C66.1623 51 66.4523 50.8803 66.6661 50.6672C66.8799 50.4541 67 50.165 67 49.8636V43.0455C67 42.7441 66.8799 42.4551 66.6661 42.2419C66.4523 42.0288 66.1623 41.9091 65.86 41.9091Z" fill="url(#paint3_linear)"/>
<defs>
<linearGradient id="paint0_linear" x1="38.5" y1="1" x2="38.5" y2="51" gradientUnits="userSpaceOnUse">
<stop stop-color="#562BF5"/>
<stop offset="1" stop-color="#9832F6"/>
</linearGradient>
<linearGradient id="paint1_linear" x1="38.5" y1="1" x2="38.5" y2="51" gradientUnits="userSpaceOnUse">
<stop stop-color="#562BF5"/>
<stop offset="1" stop-color="#9832F6"/>
</linearGradient>
<linearGradient id="paint2_linear" x1="38.5" y1="1" x2="38.5" y2="51" gradientUnits="userSpaceOnUse">
<stop stop-color="#562BF5"/>
<stop offset="1" stop-color="#9832F6"/>
</linearGradient>
<linearGradient id="paint3_linear" x1="38.5" y1="1" x2="38.5" y2="51" gradientUnits="userSpaceOnUse">
<stop stop-color="#562BF5"/>
<stop offset="1" stop-color="#9832F6"/>
</linearGradient>
</defs>
</svg>
