<svg width="40" height="40" viewBox="0 0 40 40" fill="none" xmlns="http://www.w3.org/2000/svg">
<rect width="40" height="40" rx="20" fill="white"/>
<path d="M18.0429 21.4363C17.9668 21.4363 16.2932 21.4363 15.5325 21.4363C15.1268 21.4363 15 21.2841 15 20.9038C15 19.8895 15 18.8498 15 17.8355C15 17.4298 15.1521 17.303 15.5325 17.303H18.0429C18.0429 17.2269 18.0429 15.7562 18.0429 15.0715C18.0429 14.0572 18.2204 13.0936 18.7276 12.2061C19.2601 11.2932 20.0208 10.6847 20.9844 10.3296C21.6183 10.1014 22.2523 10 22.9369 10H25.422C25.777 10 25.9291 10.1521 25.9291 10.5072V13.3979C25.9291 13.7529 25.777 13.9051 25.422 13.9051C24.7373 13.9051 24.0527 13.9051 23.368 13.9304C22.6834 13.9304 22.3283 14.2601 22.3283 14.9701C22.303 15.7308 22.3283 16.4662 22.3283 17.2523H25.2698C25.6755 17.2523 25.8277 17.4044 25.8277 17.8101V20.8784C25.8277 21.2841 25.7009 21.4109 25.2698 21.4109C24.357 21.4109 22.4044 21.4109 22.3283 21.4109V29.6775C22.3283 30.1086 22.2016 30.2607 21.7451 30.2607C20.6801 30.2607 19.6404 30.2607 18.5754 30.2607C18.1951 30.2607 18.0429 30.1086 18.0429 29.7282C18.0429 27.0657 18.0429 21.5124 18.0429 21.4363V21.4363Z" fill="#181C1E"/>
</svg>
